<?xml version="1.0" standalone="no"?>
<!DOCTYPE svg PUBLIC "-//W3C//DTD SVG 20010904//EN"
 "http://www.w3.org/TR/2001/REC-SVG-20010904/DTD/svg10.dtd">
<svg version="1.0" xmlns="http://www.w3.org/2000/svg"
 width="837.000000pt" height="837.000000pt" viewBox="0 0 837.000000 837.000000"
 preserveAspectRatio="xMidYMid meet">
<metadata>
Created by potrace 1.11, written by Peter Selinger 2001-2013
</metadata>
<g transform="translate(0.000000,837.000000) scale(0.100000,-0.100000)"
fill="#000000" stroke="none">
<path d="M0 4185 l0 -4185 4185 0 4185 0 0 4185 0 4185 -4185 0 -4185 0 0
-4185z m3047 2323 c-3 -8 -6 -5 -6 6 -1 11 2 17 5 13 3 -3 4 -12 1 -19z m360
-1184 c16 -4 33 -33 67 -109 25 -56 46 -107 46 -114 0 -6 5 -11 10 -11 17 0
11 -91 -10 -159 -12 -36 -18 -72 -15 -80 3 -9 3 -12 -1 -8 -4 4 -24 -41 -43
-100 -36 -107 -37 -108 -81 -130 -25 -12 -66 -27 -92 -33 -27 -7 -48 -16 -48
-20 0 -5 -8 -11 -19 -15 -16 -5 -17 -11 -10 -48 4 -23 14 -63 22 -89 17 -53
19 -52 -56 -48 -26 1 -54 -4 -62 -10 -12 -10 -18 -10 -29 -1 -10 8 -63 11
-166 10 -104 -1 -156 3 -164 11 -8 8 -6 9 8 4 16 -6 18 -4 13 10 -4 9 -3 15 2
11 5 -3 19 8 31 25 25 35 14 62 -20 53 -11 -3 -20 0 -20 6 0 9 28 16 52 12 4
0 5 6 1 15 -4 11 -8 12 -13 4 -5 -9 -9 -9 -14 -1 -7 11 6 15 33 12 7 -2 10 2
6 8 -7 12 7 15 18 4 4 -3 -1 -12 -11 -19 -13 -10 -14 -13 -3 -14 11 0 10 -4
-4 -13 -12 -10 -14 -16 -7 -21 7 -4 17 3 24 18 6 14 15 26 20 26 4 0 8 6 8 14
0 8 7 16 15 20 8 3 15 12 15 20 0 7 7 17 16 20 13 5 14 9 4 21 -11 13 -10 14
1 10 8 -3 20 5 28 17 8 13 52 73 97 134 76 101 102 146 74 129 -6 -3 -7 1 -3
10 4 13 8 14 14 4 6 -10 13 -7 28 12 11 13 18 29 16 36 -2 7 1 15 7 19 7 5 8
2 3 -7 -12 -21 6 -1 46 51 44 57 66 80 80 80 6 0 18 4 28 10 17 9 17 12 -2 67
-18 55 -23 74 -26 116 -1 20 -36 24 -44 5 -3 -7 -28 -44 -56 -82 -28 -37 -48
-72 -45 -77 3 -5 1 -8 -4 -7 -6 2 -21 -12 -34 -30 -92 -128 -128 -182 -121
-182 4 0 -1 -6 -12 -14 -11 -7 -42 -47 -70 -87 -27 -41 -68 -99 -91 -129 -38
-51 -52 -90 -32 -90 14 0 9 -18 -7 -24 -12 -4 -14 0 -11 19 3 14 3 25 2 25 -5
0 -96 -120 -96 -126 0 -3 5 -2 12 2 7 4 8 3 4 -5 -4 -6 -11 -9 -16 -6 -5 3
-21 -12 -34 -34 -14 -22 -30 -42 -36 -46 -5 -3 -10 -11 -10 -16 0 -6 4 -8 8
-5 4 2 8 -4 8 -15 0 -19 -1 -19 -12 -4 -15 20 -34 12 -33 -13 0 -9 3 -12 5 -6
4 9 13 8 34 -3 33 -16 37 -25 17 -41 -16 -14 -35 -2 -32 20 2 12 -3 16 -20 15
-14 -1 -41 -25 -74 -67 l-52 -65 413 -5 c358 -4 413 -7 413 -20 -1 -40 -1 -40
-445 -40 l-428 0 5 -22 c4 -23 4 -23 -11 -3 -14 17 -14 20 -1 28 12 6 15 31
15 127 0 66 -4 120 -8 120 -16 0 -44 -38 -37 -50 3 -6 1 -9 -7 -8 -7 2 -12 -5
-12 -14 1 -10 -2 -16 -6 -13 -4 2 -12 -7 -18 -20 -7 -14 -16 -25 -22 -25 -6 0
-28 -14 -49 -31 l-39 -31 29 -56 c16 -31 29 -60 29 -64 0 -5 -34 -8 -75 -8
-53 0 -75 -4 -75 -12 0 -9 -4 -8 -10 2 -5 8 -17 15 -26 15 -11 0 -18 10 -20
26 -1 14 -10 43 -20 65 -9 21 -18 50 -18 64 -1 20 -6 25 -24 24 -12 -1 -20 1
-17 5 4 3 10 6 13 6 4 0 13 4 21 9 10 6 12 5 7 -2 -4 -7 -1 -12 9 -12 8 0 18
-7 21 -15 9 -22 94 -18 95 4 1 13 2 12 6 -2 2 -9 8 -15 12 -12 9 5 -4 90 -19
129 -6 16 -22 24 -66 33 -56 11 -435 49 -574 57 -95 5 -173 24 -188 44 -7 9
-43 73 -79 142 -37 69 -71 128 -77 132 -6 4 -7 8 -3 8 5 0 -4 22 -19 50 -15
27 -31 47 -37 43 -6 -4 -8 0 -4 9 3 9 -2 28 -11 44 -12 22 -17 67 -22 181 l-5
152 50 5 c69 7 368 24 560 32 88 4 446 8 795 9 563 2 836 9 849 21 6 6 43 5
68 -2z m2370 -28 c3 -3 -16 -6 -43 -6 -27 0 -80 -5 -119 -11 -38 -5 -90 -12
-115 -15 -25 -3 -57 -11 -72 -19 -21 -10 -28 -10 -32 0 -2 7 -16 15 -30 17
-24 5 -25 3 -20 -26 3 -17 9 -35 15 -40 5 -6 9 -15 9 -20 0 -6 -5 -3 -11 7 -6
9 -15 15 -21 11 -6 -4 -8 1 -3 15 7 22 5 22 -42 15 -26 -4 -75 -13 -108 -21
-33 -7 -67 -14 -75 -14 -26 -2 -171 -38 -255 -64 -90 -27 -73 -31 65 -15 133
15 307 31 400 37 47 3 90 8 95 12 6 5 45 7 89 6 55 -1 82 3 92 12 12 12 14 11
14 -12 0 -14 -7 -37 -16 -50 -9 -13 -13 -28 -10 -33 5 -8 -41 -3 -110 13 -26
6 -34 2 -65 -32 -35 -39 -36 -39 -102 -37 -37 1 -67 0 -67 -2 0 -2 13 -10 30
-19 32 -17 117 -20 140 -5 8 5 11 10 5 10 -5 0 8 9 30 20 22 11 32 18 23 17
-9 -1 -16 3 -15 8 1 6 6 9 11 7 4 -1 16 3 25 10 14 12 15 11 2 -4 -12 -16 -10
-19 14 -28 71 -27 135 5 135 69 0 20 -5 42 -10 47 -7 7 -5 17 6 30 8 10 13 14
10 8 -6 -13 18 -26 29 -16 3 4 40 5 81 3 61 -2 79 1 95 15 19 17 24 9 13 -20
-3 -9 -12 -16 -19 -16 -19 0 -123 -115 -131 -144 -3 -15 -1 -154 5 -310 7
-155 9 -289 6 -297 -4 -11 -14 -14 -31 -11 -18 3 -24 0 -25 -14 -1 -12 -4 -7
-10 11 -4 17 -11 146 -15 288 -3 141 -10 257 -15 257 -5 0 -9 -10 -10 -22 -1
-22 -1 -22 -8 2 -10 31 -5 41 14 33 9 -3 15 1 15 11 0 9 -3 16 -8 16 -14 0
-113 -110 -107 -120 3 -5 0 -7 -8 -4 -14 5 -77 -49 -77 -66 0 -4 11 -11 24
-14 l24 -6 2 -185 1 -184 -31 10 c-17 6 -48 9 -70 7 l-40 -4 -2 126 c0 69 -1
140 0 159 l1 33 -26 -23 c-14 -13 -34 -37 -46 -54 -19 -27 -19 -29 -1 -14 10
9 27 16 37 16 15 0 16 -3 4 -21 -14 -20 -45 -38 -33 -18 11 18 -41 9 -61 -11
-10 -9 -30 -27 -45 -38 -16 -11 -28 -26 -28 -34 0 -13 27 -28 38 -21 4 2 8
-16 10 -40 l3 -44 -43 6 c-24 3 -60 10 -80 15 -21 5 -49 7 -64 3 -18 -5 -25
-3 -20 4 6 10 -4 12 -96 15 -21 1 -35 3 -32 6 2 3 -36 13 -85 23 -49 10 -129
31 -177 48 -48 16 -89 28 -92 26 -2 -2 7 -7 20 -11 13 -5 46 -18 73 -30 28
-12 68 -29 90 -38 22 -8 58 -22 80 -30 54 -21 267 -77 292 -77 10 0 24 -5 30
-11 6 -6 31 -10 55 -8 36 3 44 1 44 -13 0 -15 -10 -18 -62 -18 -61 0 -124 -15
-124 -30 0 -4 -9 -10 -20 -13 -11 -3 -23 -13 -27 -24 -4 -10 -12 -23 -19 -30
-17 -17 -35 -134 -33 -204 2 -64 -3 -78 -24 -61 -7 7 -54 32 -103 58 -114 59
-226 126 -334 197 -119 79 -127 85 -198 140 -35 27 -66 46 -70 43 -3 -3 0 -6
6 -6 6 0 13 -8 16 -17 13 -37 149 -179 252 -263 42 -34 122 -92 177 -128 56
-36 108 -72 115 -79 12 -12 21 -15 38 -12 4 0 10 -4 13 -9 16 -25 383 -192
422 -192 11 0 19 -4 19 -8 0 -9 59 -32 83 -32 9 0 17 -5 17 -11 0 -5 4 -8 9
-5 5 4 11 1 13 -4 2 -6 20 -12 40 -13 20 -1 35 -4 33 -7 -2 -3 27 -14 63 -24
84 -23 152 -45 175 -57 9 -5 39 -13 65 -17 26 -4 -266 -9 -648 -12 -790 -6
-696 -16 -816 91 -38 34 -104 95 -146 137 -43 41 -78 71 -78 68 0 -19 95 -171
135 -216 12 -14 30 -37 40 -53 l17 -27 -664 0 c-656 0 -665 0 -663 20 1 11 5
23 10 27 4 5 5 2 1 -4 -15 -27 13 -12 37 20 14 17 44 52 68 77 125 132 177
188 203 220 l29 35 126 0 c69 0 190 1 269 3 l142 2 0 281 c0 221 -3 279 -12
273 -9 -5 -8 -2 1 10 13 15 10 20 -20 45 -24 20 -38 26 -46 19 -7 -5 -16 -7
-22 -4 -5 3 -12 1 -14 -4 -3 -6 -4 -5 -3 2 2 7 10 12 20 10 9 -2 16 1 16 7 0
13 -57 31 -101 31 -22 0 -39 3 -39 7 0 3 12 31 26 61 15 31 27 66 28 78 0 12
4 20 9 17 4 -2 7 2 7 10 0 7 18 62 41 122 26 70 37 111 30 113 -6 2 -9 7 -6
12 2 4 -2 23 -11 41 -30 64 -53 114 -72 159 l-20 45 61 13 c46 10 213 15 632
18 314 3 617 9 675 13 115 10 787 7 797 -3z m-2482 -56 c6 0 3 -6 -6 -13 -9
-7 -15 -20 -13 -29 1 -10 -2 -20 -6 -23 -5 -3 -7 4 -5 16 3 15 0 19 -11 15
-11 -4 -12 -2 -5 13 6 10 8 21 5 24 -3 3 2 4 13 2 10 -2 23 -4 28 -5z m2653
-27 c-2 -5 2 -8 7 -8 6 0 9 4 7 8 -1 4 6 3 16 -2 11 -6 112 -10 238 -11 514
-1 737 -36 886 -142 16 -11 33 -16 39 -12 7 4 9 3 6 -3 -4 -6 24 -36 62 -67
69 -57 117 -105 205 -209 37 -43 52 -54 59 -45 6 9 7 7 3 -6 -9 -25 33 -73 47
-54 6 9 7 8 3 -4 -3 -11 20 -58 62 -125 37 -60 74 -120 82 -135 7 -16 20 -28
29 -28 13 0 13 -2 2 -9 -7 -5 -10 -14 -6 -21 6 -9 10 -9 17 1 7 11 8 9 4 -4
-3 -10 -6 -25 -6 -32 0 -12 -7 -12 -47 0 -27 7 -73 16 -103 20 -30 3 -59 10
-65 15 -29 24 -324 41 -802 47 l-493 6 0 151 c0 83 4 168 9 188 6 26 5 39 -3
42 -6 3 -1 3 12 0 15 -4 22 -1 22 10 0 19 -80 107 -92 100 -4 -3 -7 -2 -6 3 4
11 -62 83 -75 83 -5 0 -6 -7 -3 -16 3 -8 2 -12 -4 -9 -7 4 -10 -91 -10 -272
l0 -279 -40 4 c-23 2 -47 -1 -55 -8 -13 -11 -15 31 -15 347 0 198 -3 388 -6
422 -5 43 -3 61 5 61 6 0 10 -3 9 -7z m-2331 -25 c-3 -8 -6 -5 -6 6 -1 11 2
17 5 13 3 -3 4 -12 1 -19z m1703 18 c0 -3 -4 -8 -10 -11 -5 -3 -10 -1 -10 4 0
6 5 11 10 11 6 0 10 -2 10 -4z m-2080 -21 c11 -13 10 -14 -4 -9 -9 3 -16 10
-16 15 0 13 6 11 20 -6z m2190 5 c0 -5 -2 -10 -4 -10 -3 0 -8 5 -11 10 -3 6
-1 10 4 10 6 0 11 -4 11 -10z m357 4 c-3 -3 -12 -4 -19 -1 -8 3 -5 6 6 6 11 1
17 -2 13 -5z m-754 -41 c-7 -2 -19 -2 -25 0 -7 3 -2 5 12 5 14 0 19 -2 13 -5z
m-68 -13 c-3 -5 -12 -10 -18 -10 -7 0 -6 4 3 10 19 12 23 12 15 0z m-1685 -10
c0 -5 -4 -10 -10 -10 -5 0 -10 5 -10 10 0 6 5 10 10 10 6 0 10 -4 10 -10z
m-17 -55 c-3 -9 -8 -14 -10 -11 -3 3 -2 9 2 15 9 16 15 13 8 -4z m-39 -51 c3
-8 2 -12 -4 -9 -6 3 -10 10 -10 16 0 14 7 11 14 -7z m2213 10 c-3 -3 -12 -4
-19 -1 -8 3 -5 6 6 6 11 1 17 -2 13 -5z m-2296 -13 c7 11 9 10 10 -6 l0 -20 9
20 c5 11 9 14 9 6 1 -20 -37 -78 -56 -85 -10 -4 -5 4 10 20 30 30 34 44 13 44
-7 0 -20 8 -27 18 -13 16 -12 16 4 3 16 -13 20 -13 28 0z m2250 -14 c-10 -9
-11 -8 -5 6 3 10 9 15 12 12 3 -3 0 -11 -7 -18z m-2181 -2 c0 -2 -6 -5 -13 -8
-8 -3 -14 1 -14 8 0 7 6 11 14 8 7 -3 13 -6 13 -8z m2517 -7 c-3 -8 -6 -5 -6
6 -1 11 2 17 5 13 3 -3 4 -12 1 -19z m-2619 -19 c3 -12 2 -12 -6 0 -10 14 -32
7 -32 -10 0 -6 4 -8 8 -5 4 2 9 -5 9 -16 2 -21 2 -21 -13 1 -13 18 -13 25 -3
37 14 17 31 14 37 -7z m4147 -9 c3 -5 1 -10 -4 -10 -6 0 -11 5 -11 10 0 6 2
10 4 10 3 0 8 -4 11 -10z m-4187 -45 c-3 -3 -9 2 -12 12 -6 14 -5 15 5 6 7 -7
10 -15 7 -18z m-28 -15 c6 -11 7 -20 2 -20 -6 0 -12 9 -15 20 -3 11 -3 20 -1
20 2 0 8 -9 14 -20z m60 0 c0 -5 -5 -10 -11 -10 -5 0 -7 5 -4 10 3 6 8 10 11
10 2 0 4 -4 4 -10z m2493 -4 c4 -10 1 -13 -8 -10 -11 4 -13 -1 -9 -22 3 -16 2
-26 -1 -22 -11 11 -13 43 -2 56 12 15 14 15 20 -2z m529 -14 c-7 -2 -10 -8 -7
-12 3 -5 0 -12 -6 -16 -7 -4 -9 -3 -5 4 3 6 2 13 -4 17 -16 10 -1 25 17 18 11
-4 13 -8 5 -11z m-3109 -19 c-5 -12 -3 -14 7 -8 9 6 11 4 5 -5 -6 -10 -11 -9
-21 5 -14 19 -9 39 6 30 5 -3 6 -13 3 -22z m2543 -28 c2 -10 -7 -15 -27 -15
-16 0 -29 5 -29 11 0 5 5 7 10 4 6 -4 18 -4 27 -1 13 5 13 9 2 24 -11 14 -11
15 1 5 8 -7 15 -20 16 -28z m54 19 c0 -8 -5 -12 -10 -9 -6 4 -8 11 -5 16 9 14
15 11 15 -7z m554 -2 c2 -4 -5 -9 -17 -9 -17 -2 -19 0 -7 7 18 12 18 12 24 2z
m-5027 -24 c-3 -8 -6 -5 -6 6 -1 11 2 17 5 13 3 -3 4 -12 1 -19z m1948 -5 c9
4 14 3 10 -3 -3 -6 -12 -10 -20 -10 -7 0 -15 -3 -18 -7 -2 -5 -2 -2 -1 5 2 6
-1 12 -7 12 -6 0 -7 5 -3 11 5 8 9 7 14 -1 4 -7 15 -10 25 -7z m-1932 -18 c-3
-9 -8 -14 -10 -11 -3 3 -2 9 2 15 9 16 15 13 8 -4z m6257 -10 c14 -19 14 -19
-2 -6 -10 7 -18 18 -18 24 0 6 1 8 3 6 1 -2 9 -13 17 -24z m-1793 -27 c-3 -8
-6 -5 -6 6 -1 11 2 17 5 13 3 -3 4 -12 1 -19z m563 -3 c14 -19 14 -19 -2 -6
-10 7 -18 18 -18 24 0 6 1 8 3 6 1 -2 9 -13 17 -24z m-3153 9 c-3 -3 -12 -4
-19 -1 -8 3 -5 6 6 6 11 1 17 -2 13 -5z m6 -28 c-10 -13 -20 -22 -22 -20 -4 4
29 44 36 44 2 0 -4 -11 -14 -24z m-89 2 c-3 -5 0 -16 7 -24 6 -8 10 -16 7 -19
-2 -2 -12 8 -21 24 -13 23 -14 28 -2 28 8 0 12 -4 9 -9z m-33 -45 c-6 -11 -11
-13 -11 -5 0 7 -5 10 -12 6 -7 -4 -8 -3 -4 5 4 6 12 8 18 5 6 -4 8 2 4 17 -6
20 -5 21 4 7 8 -13 8 -23 1 -35z m-13 -48 c-3 -3 -9 2 -12 12 -6 14 -5 15 5 6
7 -7 10 -15 7 -18z m38 -13 c0 -10 -8 -18 -17 -18 -13 0 -14 4 -5 18 6 10 13
18 16 18 3 0 6 -8 6 -18z m-87 -28 c-13 -16 1 -19 19 -4 7 5 6 3 -2 -6 -11
-13 -18 -14 -32 -5 -12 6 -14 11 -5 11 7 0 11 6 8 14 -4 10 -1 13 9 9 11 -4
12 -9 3 -19z m2473 -26 c-7 -7 -12 -8 -12 -2 0 14 12 26 19 19 2 -3 -1 -11 -7
-17z m-1762 -7 c0 -5 -7 -12 -16 -15 -14 -5 -15 -4 -4 9 14 17 20 19 20 6z
m1677 -46 c5 -4 3 -5 -4 -1 -6 3 -14 2 -18 -4 -3 -5 -1 -10 4 -10 6 0 11 -5
11 -10 0 -6 -7 -6 -18 1 -10 7 -19 17 -19 24 0 13 32 13 44 0z m-1494 -31
c-21 -16 -43 -18 -43 -4 0 6 7 10 15 10 8 0 15 4 15 10 0 5 7 7 15 4 14 -6 13
-8 -2 -20z m-147 4 c4 -7 4 -10 -1 -6 -4 4 -14 3 -22 -3 -8 -8 -13 -8 -13 -1
0 6 6 13 13 15 6 3 13 6 14 6 1 1 5 -5 9 -11z m-843 -13 c-3 -9 -8 -14 -10
-11 -3 3 -2 9 2 15 9 16 15 13 8 -4z m897 -15 c0 -5 -4 -10 -10 -10 -5 0 -10
5 -10 10 0 6 5 10 10 10 6 0 10 -4 10 -10z m-52 -33 c23 -26 24 -33 23 -170 0
-78 -3 -143 -6 -144 -3 -2 -43 -3 -90 -3 -83 0 -85 0 -85 24 0 15 -7 26 -17
29 -18 5 -6 7 62 10 l30 2 3 115 c2 98 6 118 22 135 11 12 17 25 13 29 -5 4
-1 6 6 4 8 -1 26 -15 39 -31z m61 -8 c-24 -15 -29 -10 -11 11 10 12 18 16 21
9 2 -6 -3 -15 -10 -20z m-874 -3 c-11 -8 -23 -12 -28 -9 -13 8 3 23 26 23 20
0 20 0 2 -14z m15 -21 c-7 -9 -15 -13 -17 -11 -7 7 7 26 19 26 6 0 6 -6 -2
-15z m-110 1 c0 -3 -4 -8 -10 -11 -5 -3 -10 -1 -10 4 0 6 5 11 10 11 6 0 10
-2 10 -4z m-663 -42 c-3 -3 -12 -4 -19 -1 -8 3 -5 6 6 6 11 1 17 -2 13 -5z
m3640 -46 c-3 -8 -6 -5 -6 6 -1 11 2 17 5 13 3 -3 4 -12 1 -19z m-3260 -10
c-3 -8 -6 -5 -6 6 -1 11 2 17 5 13 3 -3 4 -12 1 -19z m4990 16 c-3 -3 -12 -4
-19 -1 -8 3 -5 6 6 6 11 1 17 -2 13 -5z m-4557 -14 c0 -5 -4 -10 -10 -10 -5 0
-10 5 -10 10 0 6 5 10 10 10 6 0 10 -4 10 -10z m3107 -12 c-3 -8 -6 -5 -6 6
-1 11 2 17 5 13 3 -3 4 -12 1 -19z m-501 -8 c19 0 35 5 36 13 1 6 4 -35 7 -93
4 -65 2 -107 -4 -112 -5 -3 -39 -4 -75 -1 l-65 5 3 92 c3 116 4 118 37 106 15
-6 42 -10 61 -10z m-2846 0 c0 -5 -8 -10 -17 -10 -15 0 -16 2 -3 10 19 12 20
12 20 0z m3447 -22 c-3 -7 -5 -2 -5 12 0 14 2 19 5 13 2 -7 2 -19 0 -25z
m1470 16 c-3 -3 -12 -4 -19 -1 -8 3 -5 6 6 6 11 1 17 -2 13 -5z m-4937 -19 c0
-2 -9 -3 -19 -2 -11 0 -18 5 -15 9 4 6 34 0 34 -7z m2424 -10 c-4 -8 -8 -15
-10 -15 -2 0 -4 7 -4 15 0 8 4 15 10 15 5 0 7 -7 4 -15z m717 -18 c-1 -4 -1
-34 -1 -67 l0 -60 -35 0 -35 0 0 73 c0 41 3 76 6 80 7 7 66 -17 65 -26z m1906
17 c-3 -3 -12 -4 -19 -1 -8 3 -5 6 6 6 11 1 17 -2 13 -5z m-5073 -16 c-4 -5
-9 -7 -12 -4 -3 3 -12 0 -21 -7 -14 -10 -14 -10 -4 4 13 16 46 23 37 7z m2454
-9 c26 -2 26 -2 3 -6 -16 -3 -20 -7 -12 -13 9 -5 7 -9 -7 -12 -16 -5 -18 -2
-14 16 5 19 4 20 -13 6 -17 -14 -17 -14 -4 8 8 12 15 18 17 12 2 -5 16 -11 30
-11z m-2651 -21 c-3 -7 -5 -2 -5 12 0 14 2 19 5 13 2 -7 2 -19 0 -25z m3626 2
c18 0 19 2 7 10 -9 6 -10 10 -3 10 6 0 15 -5 19 -11 3 -6 15 -9 25 -6 11 3 19
0 19 -6 1 -7 1 -79 0 -161 l-1 -149 173 8 c95 4 181 8 190 7 23 -1 32 63 21
148 -4 36 -5 85 -2 110 3 25 7 38 7 29 2 -14 28 -17 184 -22 99 -4 240 -7 311
-7 l129 0 72 -62 c82 -72 145 -129 232 -211 42 -39 64 -54 68 -45 3 8 5 7 3
-3 -1 -9 22 -43 52 -75 30 -32 75 -85 100 -119 25 -33 48 -62 52 -65 22 -17
82 -167 70 -174 -4 -3 -48 8 -98 24 -107 35 -238 66 -275 65 -15 -1 -25 2 -22
6 2 4 -6 7 -19 7 -12 0 -44 3 -72 7 -27 4 -70 8 -95 10 -25 3 -92 9 -150 14
-203 19 -649 43 -661 35 -7 -4 -9 -3 -6 3 4 6 -25 13 -78 17 -46 3 -114 12
-152 20 -37 8 -120 22 -183 31 -112 15 -288 53 -440 95 -41 11 -82 22 -90 24
-21 4 -52 16 -73 27 -10 6 -33 8 -50 5 -22 -4 -26 -3 -13 2 16 7 11 11 -27 21
-25 7 -51 10 -58 6 -7 -5 -10 -4 -5 3 9 15 -26 32 -72 37 -20 1 -41 3 -47 4
-5 1 -3 6 5 11 9 6 185 10 447 10 237 0 438 3 447 6 14 5 16 30 16 173 1 118
4 161 11 149 5 -10 20 -18 32 -18z m255 -14 c15 -2 58 -5 97 -5 38 -1 74 -6
79 -11 7 -7 6 -10 -3 -10 -7 0 -11 -6 -8 -13 3 -8 0 -14 -6 -15 -44 -6 -76
-15 -72 -22 7 -12 -48 2 -72 18 -13 8 -29 12 -36 9 -10 -4 -14 8 -14 46 -1 29
1 42 4 30 3 -14 14 -23 31 -27z m-4415 22 c122 -1 213 -3 201 -5 -22 -4 -58
-56 -46 -68 4 -5 2 -5 -5 -2 -6 4 -21 -5 -33 -20 -12 -16 -19 -22 -15 -16 10
21 -24 3 -35 -18 -7 -12 -6 -20 2 -25 7 -5 8 -3 3 6 -5 9 -4 11 4 6 6 -4 9
-12 5 -17 -3 -5 5 -22 19 -38 21 -26 25 -27 36 -12 9 13 9 11 0 -7 -7 -17 -7
-32 0 -54 22 -62 6 -131 -43 -183 -29 -30 -40 -35 -78 -35 -25 0 -65 7 -88 15
-24 8 -44 14 -45 13 -6 -7 16 -48 26 -48 6 0 8 7 5 16 -3 9 -2 12 5 9 6 -4 8
-13 5 -20 -7 -18 30 -49 49 -41 9 3 13 2 10 -4 -7 -11 57 -30 101 -30 46 0 96
20 90 36 -3 9 0 11 11 7 12 -5 14 -1 9 18 -3 13 -3 18 0 12 10 -22 26 -14 19
10 -5 16 -4 18 3 8 13 -18 48 47 63 119 l11 50 421 -4 c232 -3 441 -1 464 3
36 7 42 5 46 -10 3 -11 1 -17 -3 -14 -10 6 -1 15 -206 -186 l-169 -167 -82 -7
c-46 -4 -83 -11 -83 -15 0 -5 10 -6 23 -4 20 4 21 4 2 -5 -11 -6 -174 -10
-377 -10 l-356 -1 -7 29 c-7 32 1 30 -190 46 -100 9 -105 17 -71 112 15 43 39
109 52 147 l25 68 -42 132 c-60 188 -59 184 -46 195 14 11 57 20 75 15 7 -2
112 -4 235 -6z m731 -14 c3 -8 2 -12 -4 -9 -6 3 -10 10 -10 16 0 14 7 11 14
-7z m949 9 c-7 -2 -21 -2 -30 0 -10 3 -4 5 12 5 17 0 24 -2 18 -5z m-1120 -28
c-3 -9 -8 -14 -10 -11 -3 3 -2 9 2 15 9 16 15 13 8 -4z m3227 5 c0 -5 -2 -10
-4 -10 -3 0 -8 5 -11 10 -3 6 -1 10 4 10 6 0 11 -4 11 -10z m-3309 -23 c-10
-9 -11 -8 -5 6 3 10 9 15 12 12 3 -3 0 -11 -7 -18z m3026 -9 c-3 -7 -5 -2 -5
12 0 14 2 19 5 13 2 -7 2 -19 0 -25z m-3326 -21 c-10 -9 -11 -8 -5 6 3 10 9
15 12 12 3 -3 0 -11 -7 -18z m3199 -33 l0 -44 -45 0 c-36 0 -45 3 -45 18 0 9
9 23 20 30 11 7 20 17 20 23 0 8 -6 7 -17 -2 -16 -13 -17 -12 -4 4 10 13 17
15 27 6 13 -10 18 -6 15 13 0 4 6 5 14 2 10 -4 15 -20 15 -50z m397 14 c-3 -8
-6 -5 -6 6 -1 11 2 17 5 13 3 -3 4 -12 1 -19z m-2254 5 c-7 -2 -19 -2 -25 0
-7 3 -2 5 12 5 14 0 19 -2 13 -5z m2881 -2 c4 -5 -3 -7 -14 -4 -23 6 -26 13
-6 13 8 0 17 -4 20 -9z m-2569 -11 c3 -5 -1 -10 -10 -10 -9 0 -13 5 -10 10 3
6 8 10 10 10 2 0 7 -4 10 -10z m981 -37 c-6 -6 -36 9 -36 18 0 5 9 4 20 -3 10
-7 18 -14 16 -15z m1754 17 c0 -5 -4 -10 -10 -10 -5 0 -10 5 -10 10 0 6 5 10
10 10 6 0 10 -4 10 -10z m-4365 -18 c3 -7 3 -18 0 -22 -9 -14 -35 1 -35 19 0
21 27 24 35 3z m-69 -11 c1 -6 0 -7 -3 -1 -2 5 -9 8 -13 5 -5 -3 -11 -1 -14 4
-4 5 2 8 11 7 9 -2 18 -8 19 -15z m3091 -13 c-3 -8 -6 -5 -6 6 -1 11 2 17 5
13 3 -3 4 -12 1 -19z m103 -18 c0 -5 -5 -10 -11 -10 -5 0 -7 5 -4 10 3 6 8 10
11 10 2 0 4 -4 4 -10z m30 0 c0 -5 -5 -10 -11 -10 -5 0 -7 5 -4 10 3 6 8 10
11 10 2 0 4 -4 4 -10z m-224 -73 c-2 -7 -5 -4 -5 6 -1 9 -6 17 -12 17 -5 0 -7
5 -3 11 9 15 28 -16 20 -34z m161 17 c-3 -3 -12 -4 -19 -1 -8 3 -5 6 6 6 11 1
17 -2 13 -5z m-3580 -26 c-3 -8 -6 -5 -6 6 -1 11 2 17 5 13 3 -3 4 -12 1 -19z
m1448 -16 c-3 -3 -11 0 -18 7 -9 10 -8 11 6 5 10 -3 15 -9 12 -12z m-888 -24
c-3 -8 -6 -5 -6 6 -1 11 2 17 5 13 3 -3 4 -12 1 -19z m946 15 c-7 -2 -19 -2
-25 0 -7 3 -2 5 12 5 14 0 19 -2 13 -5z m2110 0 c-7 -2 -19 -2 -25 0 -7 3 -2
5 12 5 14 0 19 -2 13 -5z m-3195 -164 c-3 -8 -7 -3 -11 10 -4 17 -3 21 5 13 5
-5 8 -16 6 -23z m57 21 c-3 -5 -12 -10 -18 -10 -7 0 -6 4 3 10 19 12 23 12 15
0z m-16 -59 c-18 -23 -38 -41 -46 -41 -7 0 6 20 29 44 52 54 62 52 17 -3z
m-69 24 c0 -8 -4 -15 -10 -15 -5 0 -7 7 -4 15 4 8 8 15 10 15 2 0 4 -7 4 -15z
m34 -21 c3 -8 2 -12 -4 -9 -6 3 -10 10 -10 16 0 14 7 11 14 -7z m-38 -36 c-9
-12 -16 -19 -16 -15 0 11 24 47 28 42 2 -2 -3 -14 -12 -27z m31 -24 c-3 -3
-12 -4 -19 -1 -8 3 -5 6 6 6 11 1 17 -2 13 -5z m-490 -106 c-3 -8 -6 -5 -6 6
-1 11 2 17 5 13 3 -3 4 -12 1 -19z m1430 -30 c2 -17 0 -19 -7 -8 -5 8 -6 18
-4 22 8 12 10 10 11 -14z m-1117 -33 c0 -5 -5 -3 -10 5 -5 8 -10 20 -10 25 0
6 5 3 10 -5 5 -8 10 -19 10 -25z m1120 -5 c0 -5 -2 -10 -4 -10 -3 0 -8 5 -11
10 -3 6 -1 10 4 10 6 0 11 -4 11 -10z m1390 -20 c0 -5 -2 -10 -4 -10 -3 0 -8
5 -11 10 -3 6 -1 10 4 10 6 0 11 -4 11 -10z m174 -25 c25 -20 46 -37 46 -38 0
-2 -8 -3 -19 -3 -10 0 -17 5 -15 11 2 5 -15 22 -38 37 -24 15 -38 28 -32 28 6
0 32 -16 58 -35z m1541 15 c3 -6 -1 -7 -9 -4 -18 7 -21 14 -7 14 6 0 13 -4 16
-10z m-1385 -136 c0 -2 -9 0 -20 6 -11 6 -20 13 -20 16 0 2 9 0 20 -6 11 -6
20 -13 20 -16z m-2610 12 c0 -2 -7 -7 -16 -10 -8 -3 -12 -2 -9 4 6 10 25 14
25 6z m381 -19 c-10 -9 -11 -8 -5 6 3 10 9 15 12 12 3 -3 0 -11 -7 -18z m2099
-33 c0 -8 -5 -12 -10 -9 -6 4 -8 11 -5 16 9 14 15 11 15 -7z m-1980 -69 c-7
-9 -15 -13 -19 -10 -3 3 1 10 9 15 21 14 24 12 10 -5z m1141 -68 c-10 -9 -11
-8 -5 6 3 10 9 15 12 12 3 -3 0 -11 -7 -18z m-1201 3 c0 -5 -5 -10 -11 -10 -5
0 -7 5 -4 10 3 6 8 10 11 10 2 0 4 -4 4 -10z m1210 -35 c0 -8 -4 -15 -10 -15
-5 0 -7 7 -4 15 4 8 8 15 10 15 2 0 4 -7 4 -15z m1055 -15 c3 -6 -1 -7 -9 -4
-18 7 -21 14 -7 14 6 0 13 -4 16 -10z m-2360 -79 c-3 -6 -11 -11 -17 -11 -6 0
-6 6 2 15 14 17 26 13 15 -4z m1365 -46 c0 -5 -5 -3 -10 5 -5 8 -10 20 -10 25
0 6 5 3 10 -5 5 -8 10 -19 10 -25z m100 5 c0 -5 -2 -10 -4 -10 -3 0 -8 5 -11
10 -3 6 -1 10 4 10 6 0 11 -4 11 -10z m-676 -16 c3 -8 2 -12 -4 -9 -6 3 -10
10 -10 16 0 14 7 11 14 -7z m-844 -14 c0 -5 -5 -10 -11 -10 -5 0 -7 5 -4 10 3
6 8 10 11 10 2 0 4 -4 4 -10z m2705 -40 c3 -6 -1 -7 -9 -4 -18 7 -21 14 -7 14
6 0 13 -4 16 -10z m1222 -22 c-3 -8 -6 -5 -6 6 -1 11 2 17 5 13 3 -3 4 -12 1
-19z m-3028 -53 c0 -5 -6 1 -14 15 -8 14 -14 30 -14 35 0 6 6 -1 14 -15 8 -14
14 -29 14 -35z m3028 -47 c-3 -8 -6 -5 -6 6 -1 11 2 17 5 13 3 -3 4 -12 1 -19z
m-4057 -37 c0 -5 -9 -19 -20 -32 l-20 -24 17 32 c19 34 23 39 23 24z m3156
-16 c10 -8 15 -14 9 -14 -5 0 -19 6 -29 14 -11 8 -15 15 -10 15 6 0 19 -7 30
-15z m-3215 -28 c-10 -9 -11 -8 -5 6 3 10 9 15 12 12 3 -3 0 -11 -7 -18z
m3816 -3 c-3 -3 -12 -4 -19 -1 -8 3 -5 6 6 6 11 1 17 -2 13 -5z m-2646 -26
c11 -21 11 -22 -4 -9 -10 7 -17 17 -17 22 0 15 9 10 21 -13z m2072 2 c3 -11 1
-18 -4 -14 -5 3 -9 12 -9 20 0 20 7 17 13 -6z m-2043 -50 c6 -11 8 -20 6 -20
-3 0 -10 9 -16 20 -6 11 -8 20 -6 20 3 0 10 -9 16 -20z m28 -55 c-3 -3 -9 2
-12 12 -6 14 -5 15 5 6 7 -7 10 -15 7 -18z m-140 -16 c-3 -8 -7 -3 -11 10 -4
17 -3 21 5 13 5 -5 8 -16 6 -23z m2139 9 c-3 -8 -6 -5 -6 6 -1 11 2 17 5 13 3
-3 4 -12 1 -19z m-2790 -75 c-3 -10 -5 -4 -5 12 0 17 2 24 5 18 2 -7 2 -21 0
-30z m1873 -53 c8 -5 11 -10 5 -10 -5 0 -17 5 -25 10 -8 5 -10 10 -5 10 6 0
17 -5 25 -10z m-2430 -45 c0 -5 -5 -3 -10 5 -5 8 -10 20 -10 25 0 6 5 3 10 -5
5 -8 10 -19 10 -25z m2205 -5 c3 -5 1 -10 -4 -10 -6 0 -11 5 -11 10 0 6 2 10
4 10 3 0 8 -4 11 -10z m-2244 -83 c-10 -9 -11 -8 -5 6 3 10 9 15 12 12 3 -3 0
-11 -7 -18z m3376 -29 c-3 -8 -6 -5 -6 6 -1 11 2 17 5 13 3 -3 4 -12 1 -19z
m-2790 -50 c-3 -8 -6 -5 -6 6 -1 11 2 17 5 13 3 -3 4 -12 1 -19z m1283 -248
c0 -5 -2 -10 -4 -10 -3 0 -8 5 -11 10 -3 6 -1 10 4 10 6 0 11 -4 11 -10z m347
-72 c-3 -8 -6 -5 -6 6 -1 11 2 17 5 13 3 -3 4 -12 1 -19z m-917 -22 c0 -2 -8
-10 -17 -17 -16 -13 -17 -12 -4 4 13 16 21 21 21 13z m-547 -166 c3 -11 1 -18
-4 -14 -5 3 -9 12 -9 20 0 20 7 17 13 -6z m-263 -280 c0 -5 -5 -10 -11 -10 -5
0 -7 5 -4 10 3 6 8 10 11 10 2 0 4 -4 4 -10z m-57 -130 c7 0 6 -5 -3 -11 -11
-8 -12 -12 -2 -16 14 -6 16 -33 2 -33 -6 0 -10 -28 -10 -63 l0 -63 61 -57 c49
-47 63 -56 75 -46 11 9 14 8 15 -5 1 -9 3 -20 4 -26 1 -5 3 -17 4 -26 0 -9 6
-12 13 -8 7 4 8 3 4 -4 -4 -6 4 -28 17 -49 16 -26 26 -58 29 -98 l4 -60 -95
96 c-139 140 -161 165 -161 178 0 7 -6 9 -12 6 -7 -4 -6 -1 2 7 10 8 17 32 18
68 1 30 3 89 4 132 2 42 0 74 -4 72 -12 -8 -9 5 5 20 10 12 13 12 15 0 2 -8 9
-14 15 -14z m-61 -42 c-7 -7 -12 -8 -12 -2 0 6 3 14 7 17 3 4 9 5 12 2 2 -3
-1 -11 -7 -17z m-61 -101 c-10 -9 -11 -8 -5 6 3 10 9 15 12 12 3 -3 0 -11 -7
-18z m1729 -31 c-4 -4 -16 -4 -26 2 -16 9 -14 10 8 9 15 -1 23 -6 18 -11z
m1574 -2 c3 -8 2 -12 -4 -9 -6 3 -10 10 -10 16 0 14 7 11 14 -7z m-836 -39
c-3 -3 -9 2 -12 12 -6 14 -5 15 5 6 7 -7 10 -15 7 -18z m-1884 -21 c3 -8 2
-12 -4 -9 -6 3 -10 10 -10 16 0 14 7 11 14 -7z m1081 6 c3 -6 -1 -7 -9 -4 -18
7 -21 14 -7 14 6 0 13 -4 16 -10z m160 0 c3 -5 -1 -10 -10 -10 -9 0 -13 5 -10
10 3 6 8 10 10 10 2 0 7 -4 10 -10z m-2208 -22 c-3 -8 -6 -5 -6 6 -1 11 2 17
5 13 3 -3 4 -12 1 -19z m5050 16 c-3 -3 -12 -4 -19 -1 -8 3 -5 6 6 6 11 1 17
-2 13 -5z m-1993 -20 c3 -8 2 -12 -4 -9 -6 3 -10 10 -10 16 0 14 7 11 14 -7z
m693 -6 c-3 -8 -6 -5 -6 6 -1 11 2 17 5 13 3 -3 4 -12 1 -19z m218 12 c-3 -5
-12 -10 -18 -10 -7 0 -6 4 3 10 19 12 23 12 15 0z m1634 -16 c14 -12 -19 -1
-35 12 -18 14 -18 14 6 3 14 -6 27 -13 29 -15z m-3264 6 c3 -5 1 -10 -4 -10
-6 0 -11 5 -11 10 0 6 2 10 4 10 3 0 8 -4 11 -10z m2005 0 c0 -5 -4 -10 -10
-10 -5 0 -10 5 -10 10 0 6 5 10 10 10 6 0 10 -4 10 -10z m-1418 -15 c0 -5 -5
-10 -11 -11 -8 -2 -7 -1 0 3 8 4 7 8 -2 15 -11 8 -11 9 -1 6 8 -2 14 -8 14
-13z m357 -19 c-2 -2 -15 -9 -29 -15 -24 -11 -24 -11 -6 3 16 13 49 24 35 12z
m1801 0 c0 -2 -9 -6 -20 -9 -11 -3 -18 -1 -14 4 5 9 34 13 34 5z m230 0 c0 -2
-7 -7 -16 -10 -8 -3 -12 -2 -9 4 6 10 25 14 25 6z m30 -6 c0 -5 -5 -10 -11
-10 -5 0 -7 5 -4 10 3 6 8 10 11 10 2 0 4 -4 4 -10z m-2340 -4 c0 -2 -7 -7
-16 -10 -8 -3 -12 -2 -9 4 6 10 25 14 25 6z m1057 -28 c-3 -7 -5 -2 -5 12 0
14 2 19 5 13 2 -7 2 -19 0 -25z m-926 5 c13 -16 12 -17 -3 -4 -10 7 -18 15
-18 17 0 8 8 3 21 -13z m459 11 c0 -8 -19 -13 -24 -6 -3 5 1 9 9 9 8 0 15 -2
15 -3z m325 -4 c3 -5 2 -10 -4 -10 -5 0 -13 5 -16 10 -3 6 -2 10 4 10 5 0 13
-4 16 -10z m805 6 c0 -3 -4 -8 -10 -11 -5 -3 -10 -1 -10 4 0 6 5 11 10 11 6 0
10 -2 10 -4z m115 -16 c3 -5 1 -10 -4 -10 -6 0 -11 5 -11 10 0 6 2 10 4 10 3
0 8 -4 11 -10z m-2278 -22 c-3 -8 -6 -5 -6 6 -1 11 2 17 5 13 3 -3 4 -12 1
-19z m1597 -13 c5 -22 4 -26 -4 -15 -5 8 -10 24 -10 34 0 26 6 18 14 -19z
m-2667 -7 c-3 -7 -5 -2 -5 12 0 14 2 19 5 13 2 -7 2 -19 0 -25z m2368 22 c3
-5 1 -10 -4 -10 -6 0 -11 5 -11 10 0 6 2 10 4 10 3 0 8 -4 11 -10z m-3578 -22
c-3 -8 -6 -5 -6 6 -1 11 2 17 5 13 3 -3 4 -12 1 -19z m2550 -10 c-3 -7 -5 -2
-5 12 0 14 2 19 5 13 2 -7 2 -19 0 -25z m390 10 c-3 -8 -6 -5 -6 6 -1 11 2 17
5 13 3 -3 4 -12 1 -19z m-250 -10 c-3 -8 -6 -5 -6 6 -1 11 2 17 5 13 3 -3 4
-12 1 -19z m728 12 c3 -5 1 -10 -4 -10 -6 0 -11 5 -11 10 0 6 2 10 4 10 3 0 8
-4 11 -10z m-2080 -10 c-3 -5 -11 -10 -16 -10 -6 0 -7 5 -4 10 3 6 11 10 16
10 6 0 7 -4 4 -10z m449 -6 c3 -8 2 -12 -4 -9 -6 3 -10 10 -10 16 0 14 7 11
14 -7z m866 6 c-8 -5 -22 -9 -30 -9 -10 0 -8 3 5 9 27 12 43 12 25 0z m2401
-23 c-10 -9 -11 -8 -5 6 3 10 9 15 12 12 3 -3 0 -11 -7 -18z m86 -14 c-3 -10
-5 -4 -5 12 0 17 2 24 5 18 2 -7 2 -21 0 -30z m-4419 7 c-7 -10 -14 -17 -17
-15 -4 4 18 35 25 35 2 0 -1 -9 -8 -20z m227 2 c-3 -3 -11 0 -18 7 -9 10 -8
11 6 5 10 -3 15 -9 12 -12z m215 3 c0 -8 -4 -15 -10 -15 -5 0 -7 7 -4 15 4 8
8 15 10 15 2 0 4 -7 4 -15z m2350 5 c0 -5 -5 -10 -11 -10 -5 0 -7 5 -4 10 3 6
8 10 11 10 2 0 4 -4 4 -10z m110 0 c0 -5 -5 -10 -11 -10 -5 0 -7 5 -4 10 3 6
8 10 11 10 2 0 4 -4 4 -10z m130 0 c0 -5 -4 -10 -10 -10 -5 0 -10 5 -10 10 0
6 5 10 10 10 6 0 10 -4 10 -10z m-1987 -17 c-5 -12 -3 -14 7 -8 9 6 11 4 5 -4
-5 -9 -11 -9 -17 -3 -6 6 -7 15 -4 21 11 17 16 13 9 -6z m632 -1 c-3 -3 -11 0
-18 7 -9 10 -8 11 6 5 10 -3 15 -9 12 -12z m998 1 c-7 -2 -19 -2 -25 0 -7 3
-2 5 12 5 14 0 19 -2 13 -5z m394 -18 c-9 -8 -21 -15 -27 -15 -7 0 -2 9 11 19
28 22 39 20 16 -4z m82 -1 c14 -12 -19 -1 -35 12 -18 14 -18 14 6 3 14 -6 27
-13 29 -15z m1241 22 c0 -2 -7 -7 -16 -10 -8 -3 -12 -2 -9 4 6 10 25 14 25 6z
m-1440 -39 c0 -4 -6 -2 -14 5 -8 7 -12 17 -9 22 5 8 23 -12 23 -27z m1239 6
c2 -1 -5 -1 -16 0 -11 0 -20 7 -20 14 0 10 4 10 16 1 9 -7 18 -13 20 -15z
m-1482 11 c-3 -3 -12 -4 -19 -1 -8 3 -5 6 6 6 11 1 17 -2 13 -5z m-2314 -11
c-7 -2 -19 -2 -25 0 -7 3 -2 5 12 5 14 0 19 -2 13 -5z m794 1 c-3 -3 -12 -4
-19 -1 -8 3 -5 6 6 6 11 1 17 -2 13 -5z m40 0 c-3 -3 -12 -4 -19 -1 -8 3 -5 6
6 6 11 1 17 -2 13 -5z m356 -1 c-7 -2 -19 -2 -25 0 -7 3 -2 5 12 5 14 0 19 -2
13 -5z m784 1 c-3 -3 -12 -4 -19 -1 -8 3 -5 6 6 6 11 1 17 -2 13 -5z m468 -12
c-3 -3 -11 0 -18 7 -9 10 -8 11 6 5 10 -3 15 -9 12 -12z m75 8 c0 -5 -8 -10
-17 -10 -15 0 -16 2 -3 10 19 12 20 12 20 0z m700 6 c0 -2 -7 -7 -16 -10 -8
-3 -12 -2 -9 4 6 10 25 14 25 6z m355 -6 c3 -5 1 -10 -4 -10 -6 0 -11 5 -11
10 0 6 2 10 4 10 3 0 8 -4 11 -10z m-4474 -35 c1 -5 2 -42 3 -81 1 -40 7 -78
13 -85 6 -8 32 -20 58 -28 78 -23 50 -36 -80 -36 -86 0 -119 3 -122 13 -3 6 0
12 7 12 6 0 31 9 56 20 l44 20 0 90 c0 53 -4 90 -10 90 -5 0 -10 -5 -10 -12 0
-6 -2 -9 -5 -6 -3 3 -3 12 1 21 5 13 9 14 25 4 10 -6 20 -16 20 -22z m1274 25
c-28 -12 -37 -12 -30 0 3 6 16 10 28 9 21 0 21 -1 2 -9z m648 3 c-7 -2 -21 -2
-30 0 -10 3 -4 5 12 5 17 0 24 -2 18 -5z m792 -3 c3 -5 -1 -10 -9 -10 -9 0
-16 5 -16 10 0 6 4 10 9 10 6 0 13 -4 16 -10z m925 -15 c14 -19 14 -19 -2 -6
-10 7 -18 18 -18 24 0 6 1 8 3 6 1 -2 9 -13 17 -24z m47 19 c-3 -3 -12 -4 -19
-1 -8 3 -5 6 6 6 11 1 17 -2 13 -5z m98 -4 c-3 -5 -14 -10 -23 -9 -14 0 -13 2
3 9 27 11 27 11 20 0z m1360 -9 c-3 -6 -11 -11 -16 -11 -5 0 -4 6 3 14 14 16
24 13 13 -3z m-4742 2 c-7 -2 -19 -2 -25 0 -7 3 -2 5 12 5 14 0 19 -2 13 -5z
m1562 -11 c-3 -3 -11 0 -18 7 -9 10 -8 11 6 5 10 -3 15 -9 12 -12z m1158 11
c-7 -2 -19 -2 -25 0 -7 3 -2 5 12 5 14 0 19 -2 13 -5z m-1196 -16 c0 -7 -6
-18 -14 -25 -16 -15 -17 -8 -3 19 12 22 17 24 17 6z m758 3 c3 -6 -1 -7 -9 -4
-18 7 -21 14 -7 14 6 0 13 -4 16 -10z m524 6 c-2 -2 -17 -6 -34 -10 -22 -5
-26 -4 -15 4 14 9 59 15 49 6z m-862 -12 c-3 -3 -12 -4 -19 -1 -8 3 -5 6 6 6
11 1 17 -2 13 -5z m940 0 c-3 -3 -12 -4 -19 -1 -8 3 -5 6 6 6 11 1 17 -2 13
-5z m877 -10 c5 -14 4 -15 -9 -4 -17 14 -19 20 -6 20 5 0 12 -7 15 -16z
m-2397 0 c-3 -3 -12 -4 -19 -1 -8 3 -5 6 6 6 11 1 17 -2 13 -5z m240 0 c-3 -3
-12 -4 -19 -1 -8 3 -5 6 6 6 11 1 17 -2 13 -5z m2330 0 c-3 -3 -12 -4 -19 -1
-8 3 -5 6 6 6 11 1 17 -2 13 -5z m-2528 -54 c-1 -10 -2 -11 -6 -2 -2 6 -8 10
-12 7 -5 -2 -6 8 -3 23 5 24 6 24 13 7 4 -11 8 -27 8 -35z m241 46 c0 -2 -7
-7 -16 -10 -8 -3 -12 -2 -9 4 6 10 25 14 25 6z m2370 -6 c0 -5 -5 -10 -11 -10
-5 0 -7 5 -4 10 3 6 8 10 11 10 2 0 4 -4 4 -10z m-2143 -14 c0 -8 -6 -12 -15
-9 -11 5 -11 7 0 14 7 5 13 9 14 9 0 0 1 -6 1 -14z m183 10 c0 -2 -7 -7 -16
-10 -8 -3 -12 -2 -9 4 6 10 25 14 25 6z m-1113 -12 c-3 -3 -12 -4 -19 -1 -8 3
-5 6 6 6 11 1 17 -2 13 -5z m411 -1 c-10 -2 -26 -2 -35 0 -10 3 -2 5 17 5 19
0 27 -2 18 -5z m913 -16 c-10 -9 -11 -8 -5 6 3 10 9 15 12 12 3 -3 0 -11 -7
-18z m180 -17 c-4 -3 -6 -11 -6 -19 0 -8 -7 -16 -15 -18 -11 -3 -11 -2 -3 4
12 9 12 37 0 49 -4 4 -7 11 -7 16 0 4 8 0 18 -9 10 -10 16 -20 13 -23z m-948
23 c-7 -2 -19 -2 -25 0 -7 3 -2 5 12 5 14 0 19 -2 13 -5z m557 -3 c0 -5 -5
-10 -11 -10 -5 0 -7 5 -4 10 3 6 8 10 11 10 2 0 4 -4 4 -10z m875 0 c3 -6 -1
-7 -9 -4 -18 7 -21 14 -7 14 6 0 13 -4 16 -10z m582 4 c-3 -3 -12 -4 -19 -1
-8 3 -5 6 6 6 11 1 17 -2 13 -5z m-3660 -26 c-3 -8 -6 -5 -6 6 -1 11 2 17 5
13 3 -3 4 -12 1 -19z m1493 18 c0 -2 -7 -7 -16 -10 -8 -3 -12 -2 -9 4 6 10 25
14 25 6z m267 -2 c-3 -3 -12 -4 -19 -1 -8 3 -5 6 6 6 11 1 17 -2 13 -5z m183
2 c0 -11 -19 -15 -25 -6 -3 5 1 10 9 10 9 0 16 -2 16 -4z m330 -12 c0 -8 -5
-12 -10 -9 -6 4 -8 11 -5 16 9 14 15 11 15 -7z m386 5 c3 -6 1 -16 -6 -22 -10
-9 -11 -9 -5 2 4 8 2 17 -6 22 -9 6 -10 9 -2 9 6 0 15 -5 19 -11z m234 1 c0
-5 -7 -7 -15 -4 -8 4 -15 8 -15 10 0 2 7 4 15 4 8 0 15 -4 15 -10z m1201 -31
c-12 -19 -21 -30 -21 -26 0 12 33 67 38 63 1 -2 -6 -19 -17 -37z m46 19 c-3
-8 -6 -5 -6 6 -1 11 2 17 5 13 3 -3 4 -12 1 -19z m-97 -2 c0 -8 -4 -17 -8 -20
-4 -2 -8 4 -8 15 0 10 4 19 8 19 4 0 8 -6 8 -14z m-877 -11 c-3 -9 -8 -14 -10
-11 -3 3 -2 9 2 15 9 16 15 13 8 -4z m-1486 -17 c-3 -8 -6 -5 -6 6 -1 11 2 17
5 13 3 -3 4 -12 1 -19z m-1687 2 c0 -5 -2 -10 -4 -10 -3 0 -8 5 -11 10 -3 6
-1 10 4 10 6 0 11 -4 11 -10z m1445 -8 c-3 -3 -11 0 -18 7 -9 10 -8 11 6 5 10
-3 15 -9 12 -12z m587 -14 c-8 -8 -9 -4 -5 13 4 13 8 18 11 10 2 -7 -1 -18 -6
-23z m63 13 c-3 -6 -11 -11 -16 -11 -5 0 -4 6 3 14 14 16 24 13 13 -3z m779
10 c4 -5 -3 -7 -14 -4 -23 6 -26 13 -6 13 8 0 17 -4 20 -9z m936 -6 c0 -8 -2
-15 -4 -15 -2 0 -6 7 -10 15 -3 8 -1 15 4 15 6 0 10 -7 10 -15z m-2653 -37
c-3 -7 -5 -2 -5 12 0 14 2 19 5 13 2 -7 2 -19 0 -25z m626 17 c-3 -9 -8 -14
-10 -11 -3 3 -2 9 2 15 9 16 15 13 8 -4z m694 -7 c-3 -8 -6 -5 -6 6 -1 11 2
17 5 13 3 -3 4 -12 1 -19z m1453 12 c0 -5 -2 -10 -4 -10 -3 0 -8 5 -11 10 -3
6 -1 10 4 10 6 0 11 -4 11 -10z m-3976 -16 c3 -8 2 -12 -4 -9 -6 3 -10 10 -10
16 0 14 7 11 14 -7z m1756 -4 c6 -11 8 -20 6 -20 -3 0 -10 9 -16 20 -6 11 -8
20 -6 20 3 0 10 -9 16 -20z m157 14 c-3 -3 -12 -4 -19 -1 -8 3 -5 6 6 6 11 1
17 -2 13 -5z m753 -29 c0 -5 -5 -3 -10 5 -5 8 -10 20 -10 25 0 6 5 3 10 -5 5
-8 10 -19 10 -25z m708 10 c-3 -3 -9 2 -12 12 -6 14 -5 15 5 6 7 -7 10 -15 7
-18z m475 5 c9 -11 13 -20 7 -20 -5 0 -14 9 -20 20 -6 11 -9 20 -8 20 2 0 11
-9 21 -20z m-2403 4 c0 -8 -19 -13 -24 -6 -3 5 1 9 9 9 8 0 15 -2 15 -3z m667
-21 c1 -22 -1 -24 -8 -10 -6 9 -7 22 -4 27 9 14 10 13 12 -17z m2053 17 c0 -5
-2 -10 -4 -10 -3 0 -8 5 -11 10 -3 6 -1 10 4 10 6 0 11 -4 11 -10z m-1352 -25
c-3 -3 -9 2 -12 12 -6 14 -5 15 5 6 7 -7 10 -15 7 -18z m1312 -10 c0 -5 -5 -3
-10 5 -5 8 -10 20 -10 25 0 6 5 3 10 -5 5 -8 10 -19 10 -25z m-1913 3 c-3 -8
-6 -5 -6 6 -1 11 2 17 5 13 3 -3 4 -12 1 -19z m-694 -32 c3 -7 -1 -13 -9 -13
-7 0 -11 4 -8 9 3 5 -5 18 -18 29 l-23 20 27 -16 c14 -9 29 -22 31 -29z m480
23 c-8 -8 -13 -7 -18 2 -5 8 -4 10 3 5 7 -4 12 -2 12 5 0 7 3 9 7 6 4 -4 2
-12 -4 -18z m-270 -31 c6 -22 5 -22 -8 -4 -17 22 -20 40 -6 32 5 -3 11 -16 14
-28z m657 -3 c0 -5 -5 -3 -10 5 -5 8 -10 20 -10 25 0 6 5 3 10 -5 5 -8 10 -19
10 -25z m1534 19 c3 -8 2 -12 -4 -9 -6 3 -10 1 -10 -6 0 -7 -2 -10 -5 -7 -5 5
4 38 10 38 2 0 6 -7 9 -16z m181 -7 c0 -13 -5 -24 -12 -24 -7 0 -11 3 -9 6 2
3 6 14 9 24 9 23 12 22 12 -6z m-2405 3 c0 -5 -5 -10 -11 -10 -5 0 -7 5 -4 10
3 6 8 10 11 10 2 0 4 -4 4 -10z m160 -10 c0 -5 -10 -15 -22 -21 l-23 -12 20
21 c23 24 25 25 25 12z m1020 6 c0 -3 -4 -8 -10 -11 -5 -3 -10 -1 -10 4 0 6 5
11 10 11 6 0 10 -2 10 -4z m197 -12 c-3 -3 -12 -4 -19 -1 -8 3 -5 6 6 6 11 1
17 -2 13 -5z m556 -1 c-7 -2 -19 -2 -25 0 -7 3 -2 5 12 5 14 0 19 -2 13 -5z
m-1321 -25 c-7 -7 -12 -8 -12 -2 0 14 12 26 19 19 2 -3 -1 -11 -7 -17z m1929
3 c-8 -5 -10 -14 -6 -22 6 -11 5 -11 -5 -2 -14 12 -6 33 13 33 8 0 7 -3 -2 -9z
m-3004 -7 c-3 -3 -12 -4 -19 -1 -8 3 -5 6 6 6 11 1 17 -2 13 -5z m683 -4 c8
-5 11 -10 5 -10 -5 0 -17 5 -25 10 -8 5 -10 10 -5 10 6 0 17 -5 25 -10z m231
-8 c-7 -2 -18 1 -23 6 -8 8 -4 9 13 5 13 -4 18 -8 10 -11z m99 14 c0 -2 -7 -7
-16 -10 -8 -3 -12 -2 -9 4 6 10 25 14 25 6z m400 -11 c0 -2 -9 -3 -19 -2 -11
0 -18 5 -15 9 4 6 34 0 34 -7z m395 -3 c-3 -3 -11 0 -18 7 -9 10 -8 11 6 5 10
-3 15 -9 12 -12z m425 8 c0 -5 -7 -7 -15 -4 -8 4 -15 8 -15 10 0 2 7 4 15 4 8
0 15 -4 15 -10z m-573 -6 c-3 -3 -12 -4 -19 -1 -8 3 -5 6 6 6 11 1 17 -2 13
-5z m416 -1 c-7 -2 -21 -2 -30 0 -10 3 -4 5 12 5 17 0 24 -2 18 -5z m204 1
c-3 -3 -12 -4 -19 -1 -8 3 -5 6 6 6 11 1 17 -2 13 -5z m220 0 c-3 -3 -12 -4
-19 -1 -8 3 -5 6 6 6 11 1 17 -2 13 -5z m-1662 -14 c3 -5 1 -10 -4 -10 -6 0
-11 5 -11 10 0 6 2 10 4 10 3 0 8 -4 11 -10z m222 4 c-3 -3 -12 -4 -19 -1 -8
3 -5 6 6 6 11 1 17 -2 13 -5z"/>
<path d="M1440 5140 c-8 -5 -24 -10 -34 -10 -36 0 -157 -41 -150 -51 3 -5 1
-16 -6 -24 -9 -11 0 -36 43 -120 l54 -105 31 68 c18 38 32 72 32 76 0 5 6 22
14 39 8 18 22 49 30 71 18 42 10 71 -14 56z m-160 -125 c0 -5 -5 -3 -10 5 -5
8 -10 20 -10 25 0 6 5 3 10 -5 5 -8 10 -19 10 -25z m70 -55 c0 -5 -5 -10 -11
-10 -5 0 -7 5 -4 10 3 6 8 10 11 10 2 0 4 -4 4 -10z m-10 -60 c0 -5 -4 -10
-10 -10 -5 0 -10 5 -10 10 0 6 5 10 10 10 6 0 10 -4 10 -10z"/>
<path d="M1230 5076 c0 -9 5 -16 10 -16 6 0 10 4 10 9 0 6 -4 13 -10 16 -5 3
-10 -1 -10 -9z"/>
<path d="M2626 4317 c3 -10 9 -15 12 -12 3 3 0 11 -7 18 -10 9 -11 8 -5 -6z"/>
<path d="M3917 4953 c-4 -3 -7 -237 -7 -520 l0 -513 188 2 187 3 3 70 c2 68
-9 108 -25 92 -4 -5 -1 -12 6 -16 7 -5 9 -11 4 -14 -5 -3 -14 3 -21 14 -7 11
-8 19 -2 19 18 0 11 20 -16 45 -42 39 -79 33 -131 -21 l-44 -46 4 334 c3 183
6 339 8 345 1 7 11 15 21 19 25 8 18 25 -20 49 -17 11 -31 24 -32 29 0 8 -104
116 -112 116 -3 0 -8 -3 -11 -7z m21 -58 c-3 -3 -9 2 -12 12 -6 14 -5 15 5 6
7 -7 10 -15 7 -18z m3 -38 c-10 -9 -11 -8 -5 6 3 10 9 15 12 12 3 -3 0 -11 -7
-18z m117 -62 c-3 -3 -9 2 -12 12 -6 14 -5 15 5 6 7 -7 10 -15 7 -18z m27 -5
c3 -5 1 -10 -4 -10 -6 0 -11 5 -11 10 0 6 2 10 4 10 3 0 8 -4 11 -10z m-30
-39 c-3 -6 -11 -11 -16 -11 -5 0 -4 6 3 14 14 16 24 13 13 -3z m-8 -83 c-3 -8
-6 -5 -6 6 -1 11 2 17 5 13 3 -3 4 -12 1 -19z m116 -533 c-3 -9 -8 -14 -10
-11 -3 3 -2 9 2 15 9 16 15 13 8 -4z m-39 -46 c-21 -23 -17 -35 5 -15 11 10
22 13 25 8 3 -5 -1 -15 -9 -22 -8 -7 -15 -9 -15 -5 0 4 -6 3 -13 -3 -8 -7 -18
-7 -27 -2 -10 6 -11 10 -3 10 7 0 10 7 6 18 -3 9 -3 14 2 10 13 -12 34 11 28
30 -4 14 -3 15 6 2 7 -10 6 -19 -5 -31z m71 31 c3 -5 2 -10 -4 -10 -5 0 -13 5
-16 10 -3 6 -2 10 4 10 5 0 13 -4 16 -10z m35 -34 c0 -3 -4 -8 -10 -11 -5 -3
-10 -1 -10 4 0 6 5 11 10 11 6 0 10 -2 10 -4z"/>
<path d="M5290 4640 c0 -5 5 -10 10 -10 6 0 10 5 10 10 0 6 -4 10 -10 10 -5 0
-10 -4 -10 -10z"/>
<path d="M2157 3839 c-8 -11 -14 -28 -12 -37 2 -9 4 -23 4 -29 1 -7 8 -13 17
-13 8 0 13 -4 10 -8 -3 -5 10 -9 29 -9 19 0 32 4 29 9 -3 4 2 8 10 8 24 0 31
46 12 75 -21 33 -78 35 -99 4z m41 -14 c-15 -13 -23 -25 -17 -27 7 -2 5 -9 -5
-17 -14 -12 -16 -12 -10 4 5 11 4 16 -3 12 -5 -3 -10 0 -10 8 0 8 3 12 6 10 4
-2 18 5 31 16 35 26 40 23 8 -6z m19 -54 c0 -10 -7 -18 -14 -17 -8 1 -12 6
-11 12 2 5 7 8 12 6 5 -2 6 4 2 13 -3 9 -2 13 3 10 6 -3 9 -14 8 -24z m33 9
c0 -5 -2 -10 -4 -10 -3 0 -8 5 -11 10 -3 6 -1 10 4 10 6 0 11 -4 11 -10z"/>
</g>
</svg>
